<svg width="121" height="41" viewBox="0 0 121 41" fill="none" xmlns="http://www.w3.org/2000/svg">
<g clip-path="url(#clip0_1_1884)">
<path d="M110.938 0.889778H10.3377C9.97096 0.889778 9.60866 0.889778 9.24293 0.891778C8.93678 0.893778 8.63307 0.899588 8.32398 0.904478C7.65249 0.91238 6.98258 0.971455 6.32008 1.08119C5.6585 1.19331 5.01765 1.40469 4.4192 1.70819C3.82148 2.01425 3.27532 2.41195 2.80055 2.88685C2.32328 3.36042 1.92544 3.90779 1.62233 4.50794C1.31838 5.10689 1.10762 5.74872 0.997329 6.41126C0.885989 7.07296 0.826077 7.7423 0.818129 8.41326C0.808849 8.71986 0.807869 9.02748 0.802979 9.33412V32.4484C0.807869 32.7589 0.808849 33.0597 0.818129 33.3703C0.826079 34.0412 0.885992 34.7105 0.997329 35.3722C1.10731 36.0351 1.31809 36.6773 1.62233 37.2765C1.9253 37.8747 2.3232 38.4198 2.80055 38.8908C3.27352 39.3678 3.82003 39.7658 4.4192 40.0695C5.01765 40.3738 5.65843 40.5864 6.32008 40.7003C6.9827 40.8091 7.65254 40.8682 8.32398 40.8771C8.63307 40.8839 8.93678 40.8878 9.24293 40.8878C9.60865 40.8898 9.97098 40.8898 10.3377 40.8898H110.938C111.297 40.8898 111.662 40.8898 112.022 40.8878C112.326 40.8878 112.639 40.8839 112.944 40.8771C113.614 40.8687 114.282 40.8096 114.944 40.7003C115.607 40.5856 116.251 40.373 116.852 40.0695C117.45 39.7656 117.996 39.3676 118.469 38.8908C118.945 38.418 119.344 37.8732 119.651 37.2765C119.953 36.6769 120.161 36.0347 120.27 35.3722C120.381 34.7104 120.443 34.0413 120.455 33.3703C120.459 33.0597 120.459 32.7589 120.459 32.4484C120.467 32.0851 120.467 31.7238 120.467 31.3546V10.4259C120.467 10.0597 120.467 9.69642 120.459 9.33412C120.459 9.02748 120.459 8.71986 120.455 8.41322C120.443 7.7422 120.381 7.07301 120.27 6.41122C120.161 5.74906 119.952 5.10728 119.651 4.5079C119.033 3.30497 118.055 2.3258 116.852 1.7081C116.251 1.40535 115.607 1.19402 114.944 1.0811C114.283 0.970881 113.614 0.911786 112.944 0.904338C112.639 0.899458 112.326 0.893598 112.022 0.891648C111.662 0.889648 111.297 0.889778 110.938 0.889778Z" fill="#A6A6A6"/>
<path d="M9.24785 40.0146C8.94317 40.0146 8.64585 40.0107 8.34356 40.0039C7.71734 39.9958 7.09258 39.9413 6.47442 39.8408C5.89801 39.7416 5.33962 39.5569 4.81768 39.2929C4.30052 39.0312 3.82883 38.6879 3.42068 38.2763C3.00662 37.8696 2.66189 37.3979 2.40017 36.8798C2.13555 36.3584 1.95243 35.7995 1.85717 35.2226C1.75429 34.6028 1.69863 33.976 1.69067 33.3476C1.68433 33.1367 1.67603 32.4345 1.67603 32.4345V9.33399C1.67603 9.33399 1.68487 8.64258 1.69072 8.43945C1.69834 7.81213 1.75368 7.1863 1.85625 6.56738C1.95168 5.9889 2.13495 5.4284 2.39971 4.90528C2.66047 4.38759 3.00328 3.91551 3.41485 3.50733C3.82595 3.09527 4.29915 2.75025 4.81719 2.48486C5.33793 2.22174 5.89526 2.03838 6.47051 1.94092C7.0907 1.83948 7.71763 1.78464 8.34602 1.77686L9.24834 1.76465H112.017L112.93 1.77735C113.553 1.78475 114.174 1.8391 114.788 1.93994C115.369 2.03862 115.933 2.22326 116.459 2.48779C117.497 3.02263 118.342 3.86881 118.874 4.90772C119.135 5.42723 119.315 5.98316 119.409 6.55664C119.513 7.18064 119.571 7.81139 119.583 8.44385C119.586 8.72705 119.586 9.03125 119.586 9.33399C119.594 9.70899 119.594 10.0659 119.594 10.4258V31.3544C119.594 31.7177 119.594 32.0722 119.586 32.4296C119.586 32.7548 119.586 33.0527 119.582 33.3593C119.571 33.9805 119.514 34.6 119.411 35.2128C119.318 35.7939 119.136 36.3572 118.871 36.8828C118.608 37.3953 118.265 37.8629 117.856 38.2685C117.447 38.6823 116.975 39.0276 116.456 39.291C115.931 39.557 115.369 39.7424 114.788 39.8408C114.17 39.9418 113.545 39.9963 112.919 40.0039C112.626 40.0107 112.32 40.0146 112.022 40.0146L110.938 40.0166L9.24785 40.0146Z" fill="black"/>
<path d="M25.572 21.1905C25.5827 20.3558 25.8044 19.5374 26.2165 18.8115C26.6285 18.0855 27.2174 17.4756 27.9285 17.0384C27.4768 16.3932 26.8808 15.8623 26.188 15.4878C25.4952 15.1132 24.7246 14.9054 23.9374 14.8807C22.2581 14.7045 20.6302 15.8856 19.7745 15.8856C18.9022 15.8856 17.5847 14.8982 16.166 14.9274C15.2483 14.9571 14.354 15.2239 13.5701 15.702C12.7862 16.18 12.1395 16.853 11.6931 17.6553C9.75905 21.0037 11.2016 25.9248 13.0543 28.6314C13.9812 29.9567 15.0644 31.4372 16.4819 31.3847C17.8689 31.3271 18.387 30.5002 20.0613 30.5002C21.72 30.5002 22.2061 31.3847 23.6523 31.3513C25.1407 31.3271 26.0784 30.02 26.9728 28.6821C27.6388 27.7378 28.1512 26.6941 28.4912 25.5896C27.6265 25.2239 26.8886 24.6117 26.3695 23.8294C25.8503 23.0471 25.573 22.1293 25.572 21.1905Z" fill="white"/>
<path d="M22.8403 13.1005C23.6518 12.1263 24.0516 10.8741 23.9548 9.60986C22.715 9.74008 21.5697 10.3326 20.7472 11.2695C20.3451 11.7271 20.0371 12.2596 19.8409 12.8363C19.6446 13.4131 19.564 14.0229 19.6035 14.6309C20.2237 14.6372 20.8372 14.5028 21.3978 14.2377C21.9585 13.9727 22.4517 13.5838 22.8403 13.1005Z" fill="white"/>
<path d="M43.1055 28.0293H38.3721L37.2354 31.3858H35.2305L39.7139 18.9678H41.7969L46.2803 31.3858H44.2412L43.1055 28.0293ZM38.8623 26.4805H42.6143L40.7647 21.0332H40.7129L38.8623 26.4805Z" fill="white"/>
<path d="M55.9629 26.8596C55.9629 29.6731 54.4571 31.4807 52.1846 31.4807C51.6089 31.5108 51.0364 31.3782 50.5327 31.098C50.0289 30.8179 49.6141 30.4016 49.336 29.8967H49.293V34.3811H47.4346V22.3322H49.2334V23.8381H49.2676C49.5586 23.3356 49.9803 22.9214 50.4879 22.6396C50.9956 22.3578 51.5701 22.2188 52.1504 22.2375C54.4482 22.2375 55.9629 24.0539 55.9629 26.8596ZM54.0528 26.8596C54.0528 25.0266 53.1055 23.8215 51.6602 23.8215C50.2403 23.8215 49.2852 25.052 49.2852 26.8596C49.2852 28.6838 50.2403 29.9055 51.6602 29.9055C53.1055 29.9055 54.0528 28.7092 54.0528 26.8596Z" fill="white"/>
<path d="M65.9278 26.8596C65.9278 29.6731 64.4219 31.4807 62.1494 31.4807C61.5738 31.5108 61.0013 31.3782 60.4975 31.098C59.9937 30.8179 59.579 30.4016 59.3008 29.8967H59.2578V34.381H57.3994V22.3322H59.1982V23.8381H59.2324C59.5234 23.3356 59.9451 22.9214 60.4527 22.6396C60.9604 22.3577 61.5349 22.2188 62.1152 22.2375C64.4131 22.2375 65.9278 24.0539 65.9278 26.8596ZM64.0176 26.8596C64.0176 25.0266 63.0703 23.8215 61.625 23.8215C60.2051 23.8215 59.25 25.052 59.25 26.8596C59.25 28.6838 60.2051 29.9055 61.625 29.9055C63.0703 29.9055 64.0176 28.7092 64.0176 26.8596Z" fill="white"/>
<path d="M72.5137 27.9258C72.6514 29.1573 73.8477 29.9658 75.4825 29.9658C77.0489 29.9658 78.1758 29.1572 78.1758 28.0469C78.1758 27.083 77.4961 26.5059 75.8867 26.1104L74.2774 25.7227C71.9971 25.1719 70.9385 24.1055 70.9385 22.375C70.9385 20.2324 72.8057 18.7607 75.4571 18.7607C78.0811 18.7607 79.8799 20.2324 79.9405 22.375H78.0645C77.9522 21.1357 76.9277 20.3877 75.4307 20.3877C73.9336 20.3877 72.9092 21.1445 72.9092 22.2461C72.9092 23.124 73.5635 23.6406 75.1641 24.0361L76.5322 24.372C79.0801 24.9746 80.1387 25.998 80.1387 27.8144C80.1387 30.1377 78.2881 31.5927 75.3447 31.5927C72.5908 31.5927 70.7314 30.1718 70.6113 27.9257L72.5137 27.9258Z" fill="white"/>
<path d="M84.1494 20.1895V22.332H85.8711V23.8037H84.1494V28.7949C84.1494 29.5703 84.4941 29.9316 85.251 29.9316C85.4554 29.9281 85.6594 29.9137 85.8623 29.8886V31.3515C85.522 31.4151 85.1762 31.4439 84.8301 31.4375C82.9971 31.4375 82.2822 30.749 82.2822 28.9931V23.8037H80.9658V22.332H82.2822V20.1895H84.1494Z" fill="white"/>
<path d="M86.8682 26.8594C86.8682 24.0107 88.5459 22.2207 91.1621 22.2207C93.7871 22.2207 95.457 24.0107 95.457 26.8594C95.457 29.7158 93.7959 31.498 91.1621 31.498C88.5292 31.498 86.8682 29.7158 86.8682 26.8594ZM93.5635 26.8594C93.5635 24.9053 92.668 23.752 91.1621 23.752C89.6562 23.752 88.7617 24.9141 88.7617 26.8594C88.7617 28.8213 89.6562 29.9658 91.1621 29.9658C92.668 29.9658 93.5635 28.8213 93.5635 26.8594Z" fill="white"/>
<path d="M96.9893 22.3322H98.7617V23.8732H98.8047C98.9246 23.3919 99.2066 22.9665 99.6032 22.6687C99.9998 22.3708 100.487 22.2185 100.982 22.2374C101.197 22.2367 101.41 22.2599 101.619 22.3068V24.045C101.349 23.9624 101.067 23.9245 100.784 23.9327C100.514 23.9218 100.245 23.9694 99.9952 24.0723C99.7454 24.1752 99.5207 24.3309 99.3368 24.5288C99.1528 24.7267 99.0138 24.962 98.9294 25.2187C98.845 25.4754 98.8171 25.7473 98.8477 26.0157V31.3859H96.9893L96.9893 22.3322Z" fill="white"/>
<path d="M110.188 28.7266C109.938 30.3701 108.337 31.498 106.289 31.498C103.655 31.498 102.021 29.7334 102.021 26.9023C102.021 24.0625 103.664 22.2207 106.211 22.2207C108.716 22.2207 110.291 23.9414 110.291 26.6865V27.3232H103.896V27.4355C103.867 27.7687 103.909 28.1044 104.019 28.4202C104.129 28.7361 104.305 29.0249 104.536 29.2674C104.766 29.51 105.045 29.7007 105.355 29.827C105.665 29.9533 105.998 30.0123 106.332 30C106.771 30.0411 107.212 29.9394 107.589 29.71C107.965 29.4805 108.258 29.1356 108.423 28.7266L110.188 28.7266ZM103.905 26.0244H108.432C108.448 25.7248 108.403 25.425 108.298 25.1438C108.194 24.8626 108.032 24.606 107.823 24.3903C107.615 24.1745 107.364 24.0042 107.086 23.89C106.809 23.7757 106.511 23.7201 106.211 23.7266C105.908 23.7248 105.608 23.7829 105.328 23.8976C105.048 24.0124 104.794 24.1815 104.579 24.3951C104.365 24.6087 104.195 24.8627 104.079 25.1423C103.964 25.422 103.904 25.7218 103.905 26.0244Z" fill="white"/>
<path d="M38.6291 9.62054C39.0188 9.59258 39.4097 9.65144 39.7738 9.79287C40.1379 9.93431 40.4661 10.1548 40.7347 10.4384C41.0033 10.722 41.2056 11.0617 41.327 11.433C41.4484 11.8043 41.4859 12.1979 41.4368 12.5854C41.4368 14.4916 40.4065 15.5874 38.6291 15.5874H36.4739V9.62054H38.6291ZM37.4006 14.7435H38.5256C38.804 14.7602 39.0826 14.7145 39.3412 14.6099C39.5997 14.5053 39.8317 14.3444 40.0202 14.1388C40.2087 13.9332 40.349 13.6882 40.4308 13.4216C40.5127 13.155 40.5341 12.8735 40.4934 12.5975C40.5311 12.3227 40.5076 12.0429 40.4244 11.7783C40.3413 11.5136 40.2007 11.2706 40.0126 11.0667C39.8246 10.8627 39.5937 10.7029 39.3366 10.5987C39.0796 10.4945 38.8026 10.4484 38.5256 10.4638H37.4006V14.7435Z" fill="white"/>
<path d="M42.4837 13.3339C42.4554 13.038 42.4892 12.7395 42.5831 12.4574C42.6769 12.1753 42.8287 11.916 43.0286 11.696C43.2285 11.476 43.4723 11.3002 43.7441 11.18C44.016 11.0597 44.3099 10.9976 44.6072 10.9976C44.9045 10.9976 45.1985 11.0597 45.4703 11.18C45.7422 11.3002 45.9859 11.476 46.1858 11.696C46.3858 11.916 46.5375 12.1753 46.6314 12.4574C46.7252 12.7395 46.7591 13.038 46.7307 13.3339C46.7596 13.6302 46.7261 13.9291 46.6326 14.2117C46.539 14.4942 46.3873 14.754 46.1873 14.9744C45.9873 15.1948 45.7434 15.371 45.4713 15.4915C45.1992 15.612 44.9048 15.6743 44.6072 15.6743C44.3096 15.6743 44.0153 15.612 43.7431 15.4915C43.471 15.371 43.2271 15.1948 43.0271 14.9744C42.8271 14.754 42.6755 14.4942 42.5819 14.2117C42.4883 13.9291 42.4548 13.6302 42.4837 13.3339ZM45.8167 13.3339C45.8167 12.3579 45.3782 11.7871 44.6087 11.7871C43.8362 11.7871 43.4017 12.3579 43.4017 13.3339C43.4017 14.3178 43.8362 14.8842 44.6087 14.8842C45.3782 14.8842 45.8167 14.3139 45.8167 13.3339Z" fill="white"/>
<path d="M52.3762 15.5874H51.4543L50.5237 12.271H50.4534L49.5266 15.5874H48.6135L47.3723 11.0845H48.2737L49.0803 14.5205H49.1467L50.0725 11.0845H50.9251L51.8508 14.5205H51.9211L52.7239 11.0845H53.6125L52.3762 15.5874Z" fill="white"/>
<path d="M54.6565 11.0845H55.512V11.7998H55.5784C55.691 11.5429 55.881 11.3276 56.1219 11.1837C56.3628 11.0399 56.6425 10.9749 56.9221 10.9976C57.1412 10.9811 57.3612 11.0142 57.5658 11.0943C57.7704 11.1744 57.9544 11.2995 58.1041 11.4603C58.2537 11.6211 58.3653 11.8136 58.4305 12.0234C58.4957 12.2332 58.5129 12.455 58.4807 12.6724V15.5874H57.592V12.8956C57.592 12.1719 57.2776 11.8121 56.6204 11.8121C56.4716 11.8051 56.3231 11.8304 56.1851 11.8863C56.047 11.9421 55.9226 12.0271 55.8205 12.1355C55.7184 12.2439 55.6409 12.3731 55.5934 12.5142C55.5459 12.6553 55.5294 12.8051 55.5452 12.9532V15.5874H54.6565L54.6565 11.0845Z" fill="white"/>
<path d="M59.8967 9.32666H60.7854V15.5874H59.8967V9.32666Z" fill="white"/>
<path d="M62.0208 13.334C61.9925 13.0381 62.0263 12.7395 62.1202 12.4574C62.2141 12.1753 62.3659 11.916 62.5658 11.696C62.7658 11.476 63.0095 11.3002 63.2814 11.18C63.5533 11.0597 63.8473 10.9976 64.1445 10.9976C64.4418 10.9976 64.7358 11.0597 65.0077 11.18C65.2796 11.3002 65.5233 11.476 65.7233 11.696C65.9232 11.916 66.075 12.1753 66.1689 12.4574C66.2627 12.7395 66.2966 13.0381 66.2683 13.334C66.2971 13.6303 66.2637 13.9292 66.17 14.2118C66.0764 14.4943 65.9247 14.7541 65.7247 14.9745C65.5247 15.1949 65.2808 15.371 65.0086 15.4916C64.7365 15.6121 64.4422 15.6744 64.1445 15.6744C63.8469 15.6744 63.5526 15.6121 63.2804 15.4916C63.0083 15.371 62.7644 15.1949 62.5644 14.9745C62.3644 14.7541 62.2127 14.4943 62.1191 14.2118C62.0254 13.9292 61.992 13.6303 62.0208 13.334ZM65.3538 13.334C65.3538 12.358 64.9153 11.7872 64.1458 11.7872C63.3733 11.7872 62.9388 12.358 62.9388 13.334C62.9388 14.3179 63.3733 14.8843 64.1458 14.8843C64.9153 14.8843 65.3538 14.314 65.3538 13.334Z" fill="white"/>
<path d="M67.2039 14.314C67.2039 13.5034 67.8074 13.0361 68.8787 12.9697L70.0984 12.8994V12.5107C70.0984 12.0351 69.7839 11.7666 69.1765 11.7666C68.6804 11.7666 68.3367 11.9487 68.238 12.2671H67.3777C67.4685 11.4936 68.196 10.9976 69.2175 10.9976C70.3464 10.9976 70.9832 11.5596 70.9832 12.5107V15.5874H70.1277V14.9546H70.0574C69.9147 15.1816 69.7143 15.3666 69.4766 15.4908C69.239 15.6151 68.9727 15.674 68.7048 15.6616C68.5158 15.6813 68.3247 15.6611 68.144 15.6024C67.9632 15.5437 67.7968 15.4478 67.6553 15.3208C67.5139 15.1938 67.4007 15.0386 67.3229 14.8652C67.2452 14.6918 67.2046 14.504 67.2039 14.314ZM70.0984 13.9292V13.5527L68.9988 13.623C68.3787 13.6645 68.0974 13.8755 68.0974 14.2724C68.0974 14.6777 68.449 14.9136 68.9324 14.9136C69.074 14.9279 69.2171 14.9136 69.3531 14.8715C69.4891 14.8294 69.6153 14.7604 69.7241 14.6686C69.8329 14.5767 69.9221 14.4639 69.9864 14.3369C70.0507 14.2099 70.0888 14.0712 70.0984 13.9292Z" fill="white"/>
<path d="M72.1511 13.334C72.1511 11.9111 72.8826 11.0098 74.0203 11.0098C74.3017 10.9968 74.581 11.0642 74.8255 11.2041C75.07 11.344 75.2697 11.5506 75.4011 11.7998H75.4675V9.32666H76.3562V15.5874H75.5046V14.876H75.4343C75.2927 15.1235 75.0861 15.3275 74.8369 15.466C74.5876 15.6045 74.3052 15.6721 74.0203 15.6616C72.8748 15.6617 72.1511 14.7603 72.1511 13.334ZM73.0691 13.334C73.0691 14.2891 73.5193 14.8638 74.2723 14.8638C75.0213 14.8638 75.4842 14.2808 75.4842 13.3379C75.4842 12.3994 75.0164 11.8081 74.2723 11.8081C73.5242 11.8081 73.0691 12.3867 73.0691 13.334Z" fill="white"/>
<path d="M80.033 13.3339C80.0047 13.038 80.0385 12.7395 80.1324 12.4574C80.2262 12.1753 80.378 11.916 80.5779 11.696C80.7779 11.476 81.0216 11.3002 81.2934 11.18C81.5653 11.0597 81.8593 10.9976 82.1565 10.9976C82.4538 10.9976 82.7478 11.0597 83.0196 11.18C83.2915 11.3002 83.5352 11.476 83.7351 11.696C83.9351 11.916 84.0868 12.1753 84.1807 12.4574C84.2745 12.7395 84.3084 13.038 84.2801 13.3339C84.3089 13.6302 84.2755 13.9291 84.1819 14.2117C84.0883 14.4942 83.9366 14.754 83.7366 14.9744C83.5366 15.1948 83.2927 15.371 83.0206 15.4915C82.7485 15.612 82.4542 15.6743 82.1565 15.6743C81.8589 15.6743 81.5646 15.612 81.2924 15.4915C81.0203 15.371 80.7764 15.1948 80.5764 14.9744C80.3764 14.754 80.2248 14.4942 80.1312 14.2117C80.0376 13.9291 80.0041 13.6302 80.033 13.3339ZM83.366 13.3339C83.366 12.3579 82.9275 11.7871 82.158 11.7871C81.3855 11.7871 80.951 12.3579 80.951 13.3339C80.951 14.3178 81.3856 14.8842 82.158 14.8842C82.9275 14.8842 83.366 14.3139 83.366 13.3339Z" fill="white"/>
<path d="M85.4724 11.0845H86.3279V11.7998H86.3943C86.5069 11.5429 86.6969 11.3276 86.9378 11.1837C87.1787 11.0399 87.4584 10.9749 87.738 10.9976C87.9571 10.9811 88.1771 11.0142 88.3817 11.0943C88.5863 11.1744 88.7703 11.2995 88.92 11.4603C89.0697 11.6211 89.1812 11.8136 89.2464 12.0234C89.3116 12.2332 89.3288 12.455 89.2966 12.6724V15.5874H88.408V12.8956C88.408 12.1719 88.0935 11.8121 87.4363 11.8121C87.2875 11.8051 87.139 11.8304 87.001 11.8863C86.8629 11.9421 86.7386 12.0271 86.6364 12.1355C86.5343 12.2439 86.4568 12.3731 86.4093 12.5142C86.3618 12.6553 86.3453 12.8051 86.3611 12.9532V15.5874H85.4724V11.0845Z" fill="white"/>
<path d="M94.3181 9.96338V11.105H95.2937V11.8535H94.3181V14.1689C94.3181 14.6406 94.5125 14.8472 94.9548 14.8472C95.0681 14.8468 95.1812 14.84 95.2937 14.8267V15.5669C95.1341 15.5954 94.9724 15.6106 94.8103 15.6123C93.822 15.6123 93.4285 15.2646 93.4285 14.3965V11.8535H92.7136V11.1049H93.4285V9.96338H94.3181Z" fill="white"/>
<path d="M96.5076 9.32666H97.3884V11.8081H97.4587C97.5769 11.5488 97.7721 11.3322 98.0178 11.1879C98.2635 11.0435 98.5477 10.9784 98.8317 11.0015C99.0497 10.9896 99.2676 11.026 99.4699 11.108C99.6721 11.1901 99.8538 11.3158 100.002 11.4761C100.15 11.6364 100.261 11.8275 100.327 12.0356C100.393 12.2438 100.412 12.4638 100.383 12.6802V15.5874H99.493V12.8994C99.493 12.1802 99.158 11.8159 98.5301 11.8159C98.3773 11.8034 98.2237 11.8244 98.0799 11.8774C97.9361 11.9305 97.8057 12.0143 97.6977 12.1231C97.5897 12.2318 97.5068 12.3628 97.4547 12.5069C97.4026 12.6511 97.3827 12.8049 97.3963 12.9575V15.5874H96.5076L96.5076 9.32666Z" fill="white"/>
<path d="M105.564 14.3717C105.443 14.7832 105.182 15.1392 104.825 15.3773C104.468 15.6155 104.039 15.7206 103.613 15.6744C103.316 15.6822 103.021 15.6254 102.749 15.5079C102.476 15.3903 102.233 15.2149 102.035 14.9938C101.837 14.7726 101.69 14.5111 101.603 14.2273C101.516 13.9434 101.492 13.6442 101.533 13.3502C101.493 13.0553 101.518 12.7554 101.604 12.4707C101.691 12.186 101.837 11.9232 102.034 11.7002C102.231 11.4771 102.474 11.2989 102.745 11.1777C103.017 11.0565 103.312 10.9951 103.609 10.9976C104.862 10.9976 105.618 11.8536 105.618 13.2676V13.5777H102.438V13.6275C102.424 13.7928 102.445 13.9591 102.499 14.1158C102.553 14.2726 102.64 14.4163 102.752 14.5378C102.865 14.6592 103.002 14.7557 103.155 14.8211C103.307 14.8865 103.472 14.9194 103.637 14.9175C103.85 14.943 104.065 14.9048 104.256 14.8076C104.447 14.7104 104.604 14.5586 104.709 14.3716L105.564 14.3717ZM102.438 12.9205H104.713C104.724 12.7694 104.703 12.6176 104.652 12.4748C104.601 12.3321 104.521 12.2016 104.417 12.0918C104.312 11.9819 104.186 11.8951 104.046 11.8369C103.906 11.7788 103.756 11.7505 103.604 11.754C103.45 11.7521 103.298 11.7809 103.156 11.8389C103.013 11.8968 102.884 11.9827 102.775 12.0914C102.667 12.2001 102.581 12.3295 102.523 12.4718C102.465 12.6142 102.436 12.7668 102.438 12.9205Z" fill="white"/>
</g>
<defs>
<clipPath id="clip0_1_1884">
<rect width="119.664" height="40" fill="white" transform="translate(0.802979 0.889648)"/>
</clipPath>
</defs>
</svg>
