<svg width="32" height="33" viewBox="0 0 32 33" fill="none" xmlns="http://www.w3.org/2000/svg">
<g id="Icon" clip-path="url(#clip0_1_500)">
<path id="Vector" d="M18.6875 32.25V17.6562H23.875L24.6562 11.9688H18.6875V8.3125C18.6875 7.5 18.8698 6.83854 19.2344 6.32812C19.599 5.81771 20.4167 5.5625 21.6875 5.5625H24.875V0.46875C24.5833 0.447917 24.0104 0.40625 23.1562 0.34375C22.3021 0.28125 21.3229 0.25 20.2188 0.25C19.0729 0.25 18.0208 0.416667 17.0625 0.75C16.1042 1.0625 15.2865 1.53646 14.6094 2.17188C13.9323 2.80729 13.4062 3.59375 13.0312 4.53125C12.6562 5.46875 12.4688 6.54167 12.4688 7.75V11.9688H7.25V17.6562H12.4688V32.25H18.6875Z" fill="white"/>
</g>
<defs>
<clipPath id="clip0_1_500">
<rect width="32" height="32" fill="white" transform="matrix(1 0 0 -1 0 32.25)"/>
</clipPath>
</defs>
</svg>
