<svg width="1920" height="1006" viewBox="0 0 1920 1006" fill="none" xmlns="http://www.w3.org/2000/svg">
<g clip-path="url(#clip0_1_19)">
<path d="M1071.04 -906.04C1007.78 -93.88 944.52 718.268 881.256 1530.42Z" fill="black"/>
<path d="M1071.04 -906.04C1007.78 -93.88 944.52 718.268 881.256 1530.42" stroke="#1941E1" stroke-width="0.6"/>
<path d="M1033.91 -897.91C1000.2 -87.574 966.498 722.756 932.79 1533.09Z" fill="black"/>
<path d="M1033.91 -897.91C1000.2 -87.574 966.498 722.756 932.79 1533.09" stroke="#1A43E1" stroke-width="0.6"/>
<path d="M995.892 -887.932C991.728 -80.0501 987.57 727.832 983.406 1535.71Z" fill="black"/>
<path d="M995.892 -887.932C991.728 -80.0501 987.57 727.832 983.406 1535.71" stroke="#1B46E1" stroke-width="0.6"/>
<path d="M958.758 -878.602C984.15 -72.5381 1009.55 733.52 1034.94 1539.58Z" fill="black"/>
<path d="M958.758 -878.602C984.15 -72.5381 1009.55 733.52 1034.94 1539.58" stroke="#1C48E1" stroke-width="0.6"/>
<path d="M921.822 -868.708C976.638 -64.84 1031.45 739.022 1086.28 1542.89Z" fill="black"/>
<path d="M921.822 -868.708C976.638 -64.84 1031.45 739.022 1086.28 1542.89" stroke="#1D4BE1" stroke-width="0.6"/>
<path d="M884.088 -859.378C968.46 -57.334 1052.84 744.71 1137.21 1546.76Z" fill="black"/>
<path d="M884.088 -859.378C968.46 -57.334 1052.84 744.71 1137.21 1546.76" stroke="#1E4DE1" stroke-width="0.6"/>
<path d="M847.152 -850.084C960.948 -50.236 1074.74 749.612 1188.54 1549.47Z" fill="black"/>
<path d="M847.152 -850.084C960.948 -50.236 1074.74 749.612 1188.54 1549.47" stroke="#1F50E0" stroke-width="0.6"/>
<path d="M809.538 -841.27C953.01 -43.498 1096.48 754.274 1239.96 1552.05Z" fill="black"/>
<path d="M809.538 -841.27C953.01 -43.498 1096.48 754.274 1239.96 1552.05" stroke="#1F52E0" stroke-width="0.6"/>
<path d="M772.398 -831.34C945.432 -35.3921 1118.47 760.562 1291.49 1556.52Z" fill="black"/>
<path d="M772.398 -831.34C945.432 -35.3921 1118.47 760.562 1291.49 1556.52" stroke="#2055E0" stroke-width="0.6"/>
<path d="M735.444 -822.154C937.71 -28.33 1139.98 765.5 1342.25 1559.33Z" fill="black"/>
<path d="M735.444 -822.154C937.71 -28.33 1139.98 765.5 1342.25 1559.33" stroke="#2157E0" stroke-width="0.6"/>
<path d="M697.212 -813.442C928.968 -21.628 1160.72 770.198 1392.48 1562.02Z" fill="black"/>
<path d="M697.212 -813.442C928.968 -21.628 1160.72 770.198 1392.48 1562.02" stroke="#225AE0" stroke-width="0.6"/>
<path d="M660.276 -803.548C921.456 -13.93 1182.64 775.694 1443.81 1565.32Z" fill="black"/>
<path d="M660.276 -803.548C921.456 -13.93 1182.64 775.694 1443.81 1565.32" stroke="#235CE0" stroke-width="0.6"/>
<path d="M623.142 -794.218C913.878 -6.41799 1204.61 781.388 1495.35 1569.19Z" fill="black"/>
<path d="M623.142 -794.218C913.878 -6.41799 1204.61 781.388 1495.35 1569.19" stroke="#245FE0" stroke-width="0.6"/>
<path d="M586.206 -784.924C906.366 0.679938 1226.53 786.29 1546.68 1571.9Z" fill="black"/>
<path d="M586.206 -784.924C906.366 0.679938 1226.53 786.29 1546.68 1571.9" stroke="#2561E0" stroke-width="0.6"/>
<path d="M547.992 -776.11C897.828 7.41793 1247.66 790.952 1597.5 1574.49Z" fill="black"/>
<path d="M547.992 -776.11C897.828 7.41793 1247.66 790.952 1597.5 1574.49" stroke="#2664E0" stroke-width="0.6"/>
<path d="M510.852 -766.78C890.244 14.924 1269.64 796.64 1649.03 1578.36Z" fill="black"/>
<path d="M510.852 -766.78C890.244 14.924 1269.64 796.64 1649.03 1578.36" stroke="#2766E0" stroke-width="0.6"/>
<path d="M473.916 -756.886C882.738 22.622 1291.55 802.142 1700.37 1581.66Z" fill="black"/>
<path d="M473.916 -756.886C882.738 22.622 1291.55 802.142 1700.37 1581.66" stroke="#2869DF" stroke-width="0.6"/>
<path d="M435.684 -748.174C873.99 29.3299 1312.3 806.84 1750.6 1584.35Z" fill="black"/>
<path d="M435.684 -748.174C873.99 29.3299 1312.3 806.84 1750.6 1584.35" stroke="#296BDF" stroke-width="0.6"/>
<path d="M398.748 -738.886C866.478 36.422 1334.21 811.736 1801.93 1587.06Z" fill="black"/>
<path d="M398.748 -738.886C866.478 36.422 1334.21 811.736 1801.93 1587.06" stroke="#2A6EDF" stroke-width="0.6"/>
<path d="M361.596 -729.658C858.69 43.898 1355.79 817.46 1852.89 1591.03Z" fill="black"/>
<path d="M361.596 -729.658C858.69 43.898 1355.79 817.46 1852.89 1591.03" stroke="#2B70DF" stroke-width="0.6"/>
<path d="M324.66 -719.764C851.184 51.596 1377.7 822.962 1904.22 1594.33Z" fill="black"/>
<path d="M324.66 -719.764C851.184 51.596 1377.7 822.962 1904.22 1594.33" stroke="#2C73DF" stroke-width="0.6"/>
<path d="M287.046 -709.75C843.24 59.534 1399.44 828.824 1955.64 1598.12Z" fill="black"/>
<path d="M287.046 -709.75C843.24 59.534 1399.44 828.824 1955.64 1598.12" stroke="#2C75DF" stroke-width="0.6"/>
<path d="M249.51 -700.456C835.134 66.632 1420.75 833.726 2006.37 1600.83Z" fill="black"/>
<path d="M249.51 -700.456C835.134 66.632 1420.75 833.726 2006.37 1600.83" stroke="#2D78DF" stroke-width="0.6"/>
<path d="M212.376 -691.726C827.55 73.5439 1442.73 838.82 2057.9 1604.09Z" fill="black"/>
<path d="M212.376 -691.726C827.55 73.5439 1442.73 838.82 2057.9 1604.09" stroke="#2E7ADF" stroke-width="0.6"/>
<path d="M175.44 -682.432C820.038 80.642 1464.64 843.722 2109.24 1606.8Z" fill="black"/>
<path d="M175.44 -682.432C820.038 80.642 1464.64 843.722 2109.24 1606.8" stroke="#2F7DDF" stroke-width="0.6"/>
<path d="M138.408 -672.526C812.496 88.544 1486.58 849.614 2160.67 1610.68Z" fill="black"/>
<path d="M138.408 -672.526C812.496 88.544 1486.58 849.614 2160.67 1610.68" stroke="#307FDF" stroke-width="0.6"/>
<path d="M100.086 -664.294C803.922 94.886 1507.76 854.072 2211.59 1613.25Z" fill="black"/>
<path d="M100.086 -664.294C803.922 94.886 1507.76 854.072 2211.59 1613.25" stroke="#3182DE" stroke-width="0.6"/>
<path d="M63.1499 -654.4C796.41 102.584 1529.67 859.574 2262.92 1616.56Z" fill="black"/>
<path d="M63.1499 -654.4C796.41 102.584 1529.67 859.574 2262.92 1616.56" stroke="#3284DE" stroke-width="0.6"/>
<path d="M26.082 -645.292C788.454 109.82 1550.83 864.938 2313.2 1620.06Z" fill="black"/>
<path d="M26.082 -645.292C788.454 109.82 1550.83 864.938 2313.2 1620.06" stroke="#3387DE" stroke-width="0.6"/>
<path d="M-11.4299 -635.296C780.546 117.548 1572.53 870.404 2364.51 1623.25Z" fill="black"/>
<path d="M-11.4299 -635.296C780.546 117.548 1572.53 870.404 2364.51 1623.25" stroke="#3489DE" stroke-width="0.6"/>
<path d="M-48.564 -627.166C772.968 123.86 1594.51 874.892 2416.04 1625.92Z" fill="black"/>
<path d="M-48.564 -627.166C772.968 123.86 1594.51 874.892 2416.04 1625.92" stroke="#358CDE" stroke-width="0.6"/>
<path d="M-86.1001 -617.272C764.856 131.558 1615.82 880.394 2466.78 1629.23Z" fill="black"/>
<path d="M-86.1001 -617.272C764.856 131.558 1615.82 880.394 2466.78 1629.23" stroke="#368EDE" stroke-width="0.6"/>
<path d="M-123.132 -607.96C757.308 138.86 1637.76 885.692 2518.21 1632.52Z" fill="black"/>
<path d="M-123.132 -607.96C757.308 138.86 1637.76 885.692 2518.21 1632.52" stroke="#3791DE" stroke-width="0.6"/>
<path d="M-160.272 -599.23C749.73 145.772 1659.74 890.78 2569.75 1635.79Z" fill="black"/>
<path d="M-160.272 -599.23C749.73 145.772 1659.74 890.78 2569.75 1635.79" stroke="#3893DE" stroke-width="0.6"/>
<path d="M-198.384 -589.84C741.228 152.9 1680.85 895.646 2620.46 1638.39Z" fill="black"/>
<path d="M-198.384 -589.84C741.228 152.9 1680.85 895.646 2620.46 1638.39" stroke="#3996DE" stroke-width="0.6"/>
<path d="M-235.422 -579.928C733.68 160.808 1702.79 901.544 2671.9 1642.28Z" fill="black"/>
<path d="M-235.422 -579.928C733.68 160.808 1702.79 901.544 2671.9 1642.28" stroke="#3998DE" stroke-width="0.6"/>
<path d="M-272.358 -570.634C726.168 167.906 1724.7 906.446 2723.23 1644.99Z" fill="black"/>
<path d="M-272.358 -570.634C726.168 167.906 1724.7 906.446 2723.23 1644.99" stroke="#3A9BDD" stroke-width="0.6"/>
<path d="M-309.492 -560.704C718.59 176.012 1746.68 912.734 2774.77 1649.46Z" fill="black"/>
<path d="M-309.492 -560.704C718.59 176.012 1746.68 912.734 2774.77 1649.46" stroke="#3B9DDD" stroke-width="0.6"/>
<path d="M-348.21 -551.308C709.482 183.146 1767.19 917.606 2824.88 1652.06Z" fill="black"/>
<path d="M-348.21 -551.308C709.482 183.146 1767.19 917.606 2824.88 1652.06" stroke="#3CA0DD" stroke-width="0.6"/>
<path d="M-384.678 -542.8C702.126 189.782 1788.94 922.37 2875.75 1654.95Z" fill="black"/>
<path d="M-384.678 -542.8C702.126 189.782 1788.94 922.37 2875.75 1654.95" stroke="#3DA2DD" stroke-width="0.6"/>
</g>
<defs>
<clipPath id="clip0_1_19">
<rect width="1920" height="1006" fill="white"/>
</clipPath>
</defs>
</svg>
