<svg width="32" height="33" viewBox="0 0 32 33" fill="none" xmlns="http://www.w3.org/2000/svg">
<g id="Icon">
<path id="Vector" d="M3.78125 23.125C3.26042 23.125 2.77604 23.224 2.32812 23.4219C1.88021 23.6198 1.47917 23.9062 1.125 24.2812C0.75 24.6771 0.46875 25.1042 0.28125 25.5625C0.09375 26.0208 0 26.5208 0 27.0625C0 27.5833 0.09375 28.0781 0.28125 28.5469C0.46875 29.0156 0.75 29.4375 1.125 29.8125C1.47917 30.2083 1.88021 30.5 2.32812 30.6875C2.77604 30.875 3.26042 30.9688 3.78125 30.9688C4.32292 30.9688 4.81771 30.875 5.26562 30.6875C5.71354 30.5 6.125 30.2083 6.5 29.8125C6.85417 29.4375 7.125 29.0156 7.3125 28.5469C7.5 28.0781 7.59375 27.5833 7.59375 27.0625C7.59375 26.5208 7.5 26.0208 7.3125 25.5625C7.125 25.1042 6.85417 24.6771 6.5 24.2812C6.125 23.9062 5.71354 23.6198 5.26562 23.4219C4.81771 23.224 4.32292 23.125 3.78125 23.125ZM0 11.5V17.1562C0.4375 17.1562 0.875 17.1823 1.3125 17.2344C1.75 17.2865 2.1875 17.3542 2.625 17.4375C3.0625 17.5208 3.48438 17.6302 3.89062 17.7656C4.29688 17.901 4.69792 18.0521 5.09375 18.2188C5.48958 18.4062 5.88021 18.6042 6.26562 18.8125C6.65104 19.0208 7.03125 19.25 7.40625 19.5C7.76042 19.75 8.10417 20.0156 8.4375 20.2969C8.77083 20.5781 9.09375 20.8854 9.40625 21.2188C9.71875 21.5521 10.0156 21.8958 10.2969 22.25C10.5781 22.6042 10.8438 22.9688 11.0938 23.3438C11.3438 23.6979 11.5677 24.0729 11.7656 24.4688C11.9635 24.8646 12.1458 25.2708 12.3125 25.6875C12.4792 26.1042 12.625 26.5312 12.75 26.9688C12.875 27.4062 12.9792 27.8438 13.0625 28.2812C13.1458 28.7188 13.2083 29.1667 13.25 29.625C13.2917 30.0833 13.3125 30.5417 13.3125 31H18.8125C18.8125 29.6667 18.6875 28.3698 18.4375 27.1094C18.1875 25.849 17.8125 24.625 17.3125 23.4375C16.8333 22.25 16.2552 21.1406 15.5781 20.1094C14.901 19.0781 14.1354 18.125 13.2812 17.25C12.4479 16.3542 11.5312 15.5625 10.5312 14.875C9.53125 14.1875 8.45833 13.5833 7.3125 13.0625C6.16667 12.5417 4.98438 12.151 3.76562 11.8906C2.54688 11.6302 1.29167 11.5 0 11.5ZM0 1.5V7.15625C1.58333 7.15625 3.125 7.3125 4.625 7.625C6.125 7.9375 7.5625 8.40625 8.9375 9.03125C10.3333 9.65625 11.6406 10.3958 12.8594 11.25C14.0781 12.1042 15.2083 13.0729 16.25 14.1562C17.3125 15.2396 18.2552 16.4115 19.0781 17.6719C19.901 18.9323 20.6146 20.2812 21.2188 21.7188C21.8229 23.1771 22.276 24.6771 22.5781 26.2188C22.8802 27.7604 23.0312 29.3542 23.0312 31H28.5C28.5 29.9792 28.4479 28.9792 28.3438 28C28.2604 27.0208 28.125 26.0521 27.9375 25.0938C27.75 24.1354 27.5104 23.1875 27.2188 22.25C26.9479 21.3333 26.625 20.4271 26.25 19.5312C25.875 18.6354 25.4688 17.7604 25.0312 16.9062C24.5938 16.0729 24.1198 15.2656 23.6094 14.4844C23.099 13.7031 22.5521 12.9479 21.9688 12.2188C21.3854 11.5104 20.7708 10.8229 20.125 10.1562C19.5 9.48958 18.8333 8.85417 18.125 8.25C17.4375 7.64583 16.7135 7.08333 15.9531 6.5625C15.1927 6.04167 14.4062 5.55208 13.5938 5.09375C12.8021 4.63542 11.9688 4.20833 11.0938 3.8125C10.2396 3.4375 9.36458 3.10417 8.46875 2.8125C7.57292 2.52083 6.66146 2.27604 5.73438 2.07812C4.80729 1.88021 3.86458 1.73958 2.90625 1.65625C1.94792 1.55208 0.979167 1.5 0 1.5Z" fill="white"/>
</g>
</svg>
