<svg width="32" height="33" viewBox="0 0 32 33" fill="none" xmlns="http://www.w3.org/2000/svg">
<g id="Icon" clip-path="url(#clip0_1_490)">
<path id="Vector" d="M0.5 10.6562H6.96875V31.7188H0.5V10.6562ZM3.78125 0.25C4.82292 0.25 5.71875 0.619792 6.46875 1.35938C7.21875 2.09896 7.59375 2.98958 7.59375 4.03125C7.59375 5.07292 7.21875 5.96875 6.46875 6.71875C5.71875 7.46875 4.82292 7.84375 3.78125 7.84375C2.73958 7.84375 1.84896 7.46875 1.10938 6.71875C0.369792 5.96875 0 5.07292 0 4.03125C0 2.94792 0.369792 2.04688 1.10938 1.32812C1.84896 0.609375 2.73958 0.25 3.78125 0.25ZM11.125 10.6562H17.375V13.4688H17.5C17.9375 12.6146 18.6875 11.8281 19.75 11.1094C20.8125 10.3906 22.1458 10.0312 23.75 10.0312C25.3958 10.0312 26.7292 10.2917 27.75 10.8125C28.7708 11.3333 29.5677 12.0469 30.1406 12.9531C30.7135 13.8594 31.0938 14.9167 31.2812 16.125C31.4688 17.3542 31.5625 18.6667 31.5625 20.0625V31.5938H25.0938V21.3125C25.0938 20.0833 24.9479 18.8333 24.6562 17.5625C24.3646 16.2917 23.3646 15.6562 21.6562 15.6562C19.9479 15.6562 18.8698 16.2188 18.4219 17.3438C17.974 18.4688 17.75 19.7083 17.75 21.0625V31.4688H11.25V10.6562H11.125Z" fill="white"/>
</g>
<defs>
<clipPath id="clip0_1_490">
<rect width="32" height="32" fill="white" transform="matrix(1 0 0 -1 0 32.25)"/>
</clipPath>
</defs>
</svg>
