<svg width="143" height="53" viewBox="0 0 143 53" fill="none" xmlns="http://www.w3.org/2000/svg">
<g id="Icon" clip-path="url(#clip0_1_646)">
<path id="Vector" d="M41.8544 39.7782C42.3128 39.148 42.6709 38.439 42.9287 37.6511C43.1865 36.8633 43.3298 36.054 43.3584 35.2232V35.1803C43.3584 34.9511 43.5661 34.593 43.9815 34.106C44.3969 33.619 44.6762 33.3755 44.8195 33.3755H45.464V32.602H39.5769V33.4184C40.379 33.4184 41.0165 33.6405 41.4891 34.0845C41.9618 34.5285 42.1982 35.123 42.1982 35.8678C42.1982 36.5554 42.1337 37.1713 42.0048 37.7156C41.8759 38.2599 41.6539 38.7899 41.3387 39.3056C40.2215 38.3029 39.0469 37.2214 37.8151 36.0612C36.5832 34.901 35.4373 33.7479 34.3773 32.602C33.6611 32.3155 33.0882 31.9144 32.6585 31.3988C32.2288 30.8831 32.0139 30.2958 32.0139 29.6369C32.0139 28.8921 32.2717 28.312 32.7874 27.8966C33.303 27.4812 34.0049 27.2735 34.893 27.2735C35.9816 27.2735 36.8912 27.6889 37.6217 28.5197C38.3522 29.3505 38.7175 30.0523 38.7175 30.6253H39.448V26.7149H38.7175C38.6315 26.8581 38.5313 26.944 38.4167 26.9727C38.3021 27.0013 38.1445 27.0157 37.944 27.0157C37.6002 27.0157 37.1991 26.9297 36.7408 26.7578C36.2824 26.5859 35.6808 26.5 34.936 26.5C33.7041 26.5 32.7301 26.8223 32.0139 27.4669C31.2977 28.1114 30.9396 29.021 30.9396 30.1956C30.9396 30.9118 31.0614 31.542 31.3049 32.0863C31.5484 32.6306 31.8707 33.1606 32.2717 33.6763C31.4696 34.2206 30.825 34.9224 30.338 35.7819C29.851 36.6413 29.6075 37.601 29.6075 38.661C29.6075 38.661 29.6075 38.6753 29.6075 38.704V38.661C29.6075 40.122 30.1518 41.3037 31.2404 42.2061C32.329 43.1086 33.5466 43.5598 34.893 43.5598C36.0962 43.5598 37.1347 43.395 38.0084 43.0656C38.8822 42.7361 39.6485 42.242 40.3074 41.5831C40.995 42.2133 41.6539 42.6573 42.2841 42.9152C42.9144 43.173 43.6306 43.3019 44.4327 43.3019H46.2375V42.4425H45.2492C44.6189 42.0128 44.0245 41.5687 43.4658 41.1104C42.9072 40.652 42.3557 40.1936 41.8114 39.7353L41.8544 39.7782ZM36.2251 42.2706C35.0506 42.2706 33.9405 41.7908 32.8948 40.8311C31.8492 39.8714 31.3263 38.8042 31.3263 37.6297C31.3263 36.7702 31.4409 36.0827 31.6701 35.567C31.8993 35.0514 32.2288 34.5644 32.6585 34.106C33.7757 35.3665 34.9216 36.5697 36.0962 37.7156C37.2708 38.8615 38.474 39.9788 39.7058 41.0674L39.8347 41.1533C39.3477 41.4971 38.8106 41.7693 38.2233 41.9698C37.636 42.1703 36.97 42.2706 36.2251 42.2706ZM59.0431 42.1847C57.3815 42.1847 56.0637 41.6762 55.0897 40.6592C54.1157 39.6422 53.557 38.4032 53.4138 36.9421C53.3851 36.5983 53.3565 36.2188 53.3278 35.8034C53.2992 35.388 53.2849 34.9797 53.2849 34.5787C53.2849 34.2349 53.292 33.9055 53.3064 33.5903C53.3207 33.2752 53.3422 32.9601 53.3708 32.6449V32.7309C53.5141 30.8688 54.0011 29.5152 54.8319 28.6701C55.6626 27.825 56.7942 27.4024 58.2266 27.4024C59.8022 27.4024 61.0341 28.047 61.9222 29.3361C62.8103 30.6253 63.2543 31.6996 63.2543 32.559H63.9848V26.7149H63.3832C63.24 26.8581 63.0967 26.9655 62.9535 27.0371C62.8103 27.1088 62.6097 27.1446 62.3519 27.1446C61.693 27.1446 61.0484 27.0228 60.4182 26.7793C59.7879 26.5358 59.0288 26.4141 58.1407 26.4141C55.8202 26.4141 54.0011 27.2448 52.6833 28.9064C51.3655 30.568 50.7066 32.5733 50.7066 34.9224C50.7066 37.3002 51.4228 39.3414 52.8552 41.0459C54.2875 42.7505 56.1926 43.6027 58.5704 43.6027C60.2033 43.6027 61.5927 43.1802 62.7386 42.3351C63.8846 41.49 64.7297 40.3226 65.274 38.8329H64.4145C63.8702 39.9215 63.197 40.7523 62.3949 41.3252C61.5927 41.8982 60.4755 42.1847 59.0431 42.1847ZM103.648 32.3012C102.76 32.3012 102.008 32.5017 101.392 32.9028C100.776 33.3038 100.224 33.9341 99.7372 34.7935L99.3935 32.559H95.9128V33.4184H96.6003C96.7722 33.4184 97.0085 33.5617 97.3093 33.8482C97.6101 34.1346 97.7606 34.3638 97.7606 34.5357V46.5248C97.7606 46.7253 97.6101 46.9688 97.3093 47.2553C97.0085 47.5418 96.7722 47.685 96.6003 47.685H95.9128V48.5015H101.585V47.685H100.897C100.754 47.685 100.525 47.5418 100.21 47.2553C99.8948 46.9688 99.7372 46.7253 99.7372 46.5248V41.3682C100.138 42.0844 100.618 42.6215 101.177 42.9796C101.735 43.3377 102.487 43.5168 103.433 43.5168C104.722 43.5168 105.782 42.9725 106.613 41.8839C107.444 40.7952 107.859 39.4201 107.859 37.7586C107.859 36.1257 107.486 34.8079 106.742 33.8052C105.997 32.8025 104.965 32.3012 103.648 32.3012ZM105.796 39.5204C105.682 40.3512 105.395 41.0316 104.937 41.5616C104.478 42.0916 103.791 42.3565 102.874 42.3565C102.846 42.3565 102.831 42.3565 102.831 42.3565C101.972 42.3565 101.241 42.0557 100.64 41.4541C100.038 40.8525 99.7372 40.1363 99.7372 39.3056C99.7372 39.2769 99.7372 39.2626 99.7372 39.2626V36.5124C99.9951 35.6816 100.396 34.9869 100.94 34.4283C101.485 33.8696 102.201 33.5903 103.089 33.5903C103.863 33.5903 104.478 33.841 104.937 34.3423C105.395 34.8437 105.682 35.5241 105.796 36.3835C105.825 36.6127 105.854 36.849 105.882 37.0925C105.911 37.336 105.925 37.5867 105.925 37.8445C105.925 38.131 105.911 38.4175 105.882 38.704C105.854 38.9904 105.825 39.2769 105.796 39.5634V39.5204ZM138.197 32.602V33.4184H138.884C139.028 33.4184 139.221 33.5617 139.465 33.8482C139.708 34.1346 139.815 34.3781 139.787 34.5787L137.423 39.8642L134.845 34.5787C134.845 34.3781 134.967 34.1346 135.21 33.8482C135.454 33.5617 135.647 33.4184 135.79 33.4184H136.435V32.602H130.634V33.4184H131.15C131.264 33.4184 131.5 33.576 131.859 33.8911C132.217 34.2063 132.439 34.4498 132.525 34.6216L136.306 42.0557L133.083 47.9429L133.986 48.4156L137.209 42.3995L140.818 34.5787C140.933 34.4068 141.14 34.1704 141.441 33.8696C141.742 33.5688 141.95 33.4184 142.064 33.4184H142.58V32.602H138.197ZM91.3578 42.4855H90.7562V43.3019H96.2565V42.4855H95.612C95.4687 42.4855 95.2467 42.3351 94.9459 42.0343C94.6451 41.7335 94.4947 41.4971 94.4947 41.3252V35.4381C94.4947 34.4641 94.2082 33.7121 93.6353 33.1821C93.0623 32.6521 92.3604 32.3871 91.5297 32.3871C90.6416 32.3871 89.9254 32.602 89.3811 33.0317C88.8368 33.4614 88.2352 33.9914 87.5763 34.6216C87.4617 33.8768 87.1322 33.311 86.5879 32.9243C86.0436 32.5375 85.4134 32.3441 84.6972 32.3441C83.7518 32.3441 83.0213 32.5662 82.5056 33.0102C81.9899 33.4542 81.417 34.0057 80.7867 34.6646L80.357 32.602H77.0482V33.4184H77.6928C77.836 33.4184 78.058 33.5617 78.3588 33.8482C78.6596 34.1346 78.81 34.3638 78.81 34.5357V41.3252C78.81 41.4971 78.6596 41.7335 78.3588 42.0343C78.058 42.3351 77.836 42.4855 77.6928 42.4855H77.0482V43.3019H82.5486V42.4855H81.947C81.7751 42.4855 81.5387 42.3351 81.2379 42.0343C80.9371 41.7335 80.7867 41.4971 80.7867 41.3252V35.8249C80.7867 35.4524 81.1377 34.9941 81.8395 34.4498C82.5414 33.9055 83.2504 33.6333 83.9666 33.6333C84.5396 33.6333 84.9693 33.798 85.2558 34.1275C85.5423 34.4569 85.6855 34.8938 85.6855 35.4381V41.3252C85.6855 41.4971 85.5351 41.7335 85.2343 42.0343C84.9335 42.3351 84.6972 42.4855 84.5253 42.4855H83.9237V43.3019H89.424V42.4855H88.7795C88.6362 42.4855 88.4142 42.3351 88.1134 42.0343C87.8126 41.7335 87.6622 41.4971 87.6622 41.3252V35.7389C87.6622 35.3951 88.0131 34.9654 88.715 34.4498C89.4169 33.9341 90.1116 33.6763 90.7991 33.6763C91.4007 33.6763 91.8376 33.841 92.1098 34.1704C92.3819 34.4999 92.518 34.9224 92.518 35.4381V41.3252C92.518 41.4971 92.3676 41.7335 92.0668 42.0343C91.766 42.3351 91.5297 42.4855 91.3578 42.4855ZM71.7197 32.3012C70.2873 32.3012 69.034 32.8025 67.9597 33.8052C66.8854 34.8079 66.3483 36.1829 66.3483 37.9305C66.3483 39.678 66.8854 41.0602 67.9597 42.0772C69.034 43.0942 70.2873 43.6027 71.7197 43.6027C73.1235 43.6027 74.3625 43.0942 75.4368 42.0772C76.5111 41.0602 77.0482 39.678 77.0482 37.9305C77.0482 36.1829 76.5111 34.8079 75.4368 33.8052C74.3625 32.8025 73.1235 32.3012 71.7197 32.3012ZM74.8996 39.6923C74.785 40.5231 74.4842 41.2035 73.9972 41.7335C73.5102 42.2634 72.751 42.5284 71.7197 42.5284C70.7457 42.5284 70.008 42.2563 69.5067 41.712C69.0053 41.1677 68.6974 40.4801 68.5828 39.6493C68.5255 39.3915 68.4897 39.1122 68.4754 38.8114C68.461 38.5106 68.4539 38.2026 68.4539 37.8875C68.4539 37.5724 68.461 37.2572 68.4754 36.9421C68.4897 36.627 68.5255 36.3262 68.5828 36.0397V36.0827C68.6974 35.2232 69.0053 34.5357 69.5067 34.02C70.008 33.5044 70.7457 33.2466 71.7197 33.2466C72.7224 33.2466 73.4744 33.5044 73.9757 34.02C74.4771 34.5357 74.785 35.2376 74.8996 36.1257C74.9283 36.3835 74.9498 36.6628 74.9641 36.9636C74.9784 37.2644 74.9856 37.5724 74.9856 37.8875C74.9856 38.2026 74.9784 38.5177 74.9641 38.8329C74.9498 39.148 74.9283 39.4631 74.8996 39.7782V39.6923ZM130.075 41.3252V35.4381C130.075 34.5214 129.782 33.7765 129.194 33.2036C128.607 32.6306 127.898 32.3441 127.067 32.3441C126.093 32.3441 125.305 32.5877 124.704 33.0747C124.102 33.5617 123.486 34.1346 122.856 34.7935L122.426 32.559H119.032V33.4184H119.676C119.848 33.4184 120.091 33.5617 120.407 33.8482C120.722 34.1346 120.879 34.3638 120.879 34.5357V41.3252C120.879 41.4971 120.722 41.7263 120.407 42.0128C120.091 42.2993 119.848 42.4425 119.676 42.4425H118.387C118.244 42.4425 118.015 42.2993 117.699 42.0128C117.384 41.7263 117.227 41.4971 117.227 41.3252V35.567C117.227 34.5071 116.826 33.6978 116.024 33.1391C115.221 32.5805 114.233 32.3012 113.058 32.3012C111.97 32.3012 111.067 32.4731 110.351 32.8168C109.635 33.1606 109.048 33.5617 108.589 34.02L110.05 36.1686H110.824C110.423 35.2519 110.387 34.5071 110.717 33.9341C111.046 33.3611 111.669 33.0747 112.586 33.0747C113.56 33.0747 114.247 33.2967 114.648 33.7407C115.049 34.1848 115.25 34.7792 115.25 35.5241L115.207 36.8132L112.414 37.3718C111.669 37.5437 110.903 37.8517 110.115 38.2957C109.327 38.7398 108.933 39.5061 108.933 40.5947C108.933 41.4541 109.205 42.156 109.75 42.7003C110.294 43.2446 110.939 43.5168 111.683 43.5168C112.486 43.5168 113.173 43.2518 113.746 42.7218C114.319 42.1918 114.82 41.6404 115.25 41.0674L115.551 43.3019H124.661V42.4855H124.059C123.887 42.4855 123.644 42.3422 123.329 42.0557C123.014 41.7693 122.856 41.5258 122.856 41.3252V35.9108C122.856 35.567 123.25 35.1087 124.038 34.5357C124.826 33.9627 125.606 33.6763 126.38 33.6763C126.953 33.6763 127.375 33.8553 127.647 34.2134C127.92 34.5715 128.056 35.0084 128.056 35.5241V41.3252C128.056 41.4971 127.898 41.7335 127.583 42.0343C127.268 42.3351 127.039 42.4855 126.895 42.4855H126.251V43.3019H131.88V42.4855H131.235C131.092 42.4855 130.863 42.3351 130.548 42.0343C130.233 41.7335 130.075 41.4971 130.075 41.3252ZM115.25 40.122C115.021 40.5231 114.648 40.9385 114.133 41.3682C113.617 41.7979 113.101 42.0128 112.586 42.0128C112.586 42.0128 112.579 42.0128 112.564 42.0128C112.55 42.0128 112.528 42.0128 112.5 42.0128C112.041 42.0128 111.655 41.848 111.34 41.5186C111.024 41.1891 110.867 40.7952 110.867 40.3369C110.867 40.3369 110.867 40.3297 110.867 40.3154C110.867 40.3011 110.867 40.2939 110.867 40.2939C110.867 39.7782 110.996 39.3414 111.254 38.9833C111.511 38.6252 111.984 38.3602 112.672 38.1883L115.25 37.5437V40.122ZM78.4233 21.3434C79.7411 21.3434 80.7724 21.0068 81.5173 20.3336C82.2621 19.6603 82.8064 18.7365 83.1502 17.5619H82.5056C82.1618 18.1635 81.7393 18.6219 81.2379 18.937C80.7366 19.2521 80.0276 19.4097 79.1108 19.4097C77.9076 19.4097 76.9623 18.9585 76.2747 18.0561C75.5872 17.1537 75.2434 16.2154 75.2434 15.2414L82.3767 14.6398L82.3337 13.8663C82.2764 12.835 81.9112 11.9541 81.2379 11.2236C80.5647 10.4931 79.6265 10.1278 78.4233 10.1278C77.0196 10.0991 75.845 10.6291 74.8996 11.7177C73.9542 12.8064 73.4816 14.1528 73.4816 15.7571C73.4816 17.2754 73.9471 18.5861 74.8781 19.689C75.8092 20.7919 76.9909 21.3434 78.4233 21.3434ZM78.3803 10.9443C79.4116 10.9443 80.0491 11.2665 80.2926 11.9111C80.5361 12.5557 80.6149 13.2647 80.5289 14.0382L75.1575 14.4679C75.1861 13.6371 75.4511 12.8422 75.9524 12.083C76.4538 11.3238 77.2631 10.9443 78.3803 10.9443ZM84.1815 12.4053L87.963 19.8824L84.6972 25.7695L85.6425 26.2422L88.8224 20.1832L92.475 12.4053C92.561 12.2048 92.7544 11.9541 93.0552 11.6533C93.356 11.3525 93.578 11.2021 93.7212 11.2021H94.1939V10.3856H89.8538V11.2021H90.5413C90.6845 11.2021 90.8779 11.3453 91.1214 11.6318C91.3649 11.9183 91.4724 12.1761 91.4437 12.4053L89.0803 17.6478L86.502 12.3623C86.502 12.1618 86.6166 11.9183 86.8457 11.6318C87.0749 11.3453 87.2611 11.2021 87.4044 11.2021H88.0919V10.3856H82.2907V11.2021H82.7634C82.9067 11.2021 83.1573 11.3596 83.5154 11.6748C83.8735 11.9899 84.0956 12.2334 84.1815 12.4053ZM48.1283 7.76435C48.1569 7.76435 48.1712 7.76435 48.1712 7.76435C48.1712 7.76435 48.1856 7.76435 48.2142 7.76435C48.558 7.76435 48.866 7.63544 49.1381 7.37761C49.4103 7.11978 49.5463 6.80465 49.5463 6.43223C49.5463 6.43223 49.5463 6.42507 49.5463 6.41074C49.5463 6.39642 49.532 6.38926 49.5034 6.38926H49.5463C49.5463 5.95954 49.4103 5.62293 49.1381 5.37942C48.866 5.13592 48.5293 5.01416 48.1283 5.01416C47.7272 5.01416 47.3906 5.13592 47.1184 5.37942C46.8463 5.62293 46.7102 5.95954 46.7102 6.38926C46.7102 6.38926 46.7102 6.39642 46.7102 6.41074C46.7102 6.42507 46.7102 6.43223 46.7102 6.43223C46.7102 6.80465 46.8463 7.11978 47.1184 7.37761C47.3906 7.63544 47.7129 7.76435 48.0853 7.76435C48.0853 7.76435 48.0925 7.76435 48.1068 7.76435C48.1211 7.76435 48.1283 7.76435 48.1283 7.76435ZM36.0962 20.2691H35.2797C35.1079 20.2691 34.85 20.1044 34.5063 19.7749C34.1625 19.4455 33.9906 19.1948 33.9906 19.0229V14.5968L35.6665 12.792L41.4247 21.0856H56.8085V20.2691H56.2069C56.0351 20.2691 55.7916 20.1259 55.4764 19.8394C55.1613 19.5529 55.0037 19.3094 55.0037 19.1089V13.7374C55.0037 13.365 55.3976 12.8995 56.1855 12.3408C56.9733 11.7822 57.7539 11.5029 58.5274 11.5029C59.1004 11.5029 59.5301 11.6748 59.8166 12.0185C60.103 12.3623 60.2463 12.8064 60.2463 13.3507V19.1089C60.2463 19.3094 60.0887 19.5529 59.7736 19.8394C59.4585 20.1259 59.215 20.2691 59.0431 20.2691H58.4415V21.0856H64.0708V20.2691H63.3832C63.24 20.2691 63.0108 20.1259 62.6957 19.8394C62.3805 19.5529 62.223 19.3094 62.223 19.1089V13.2218C62.223 12.305 61.9293 11.5602 61.3421 10.9872C60.7548 10.4143 60.0457 10.1278 59.215 10.1278C58.2696 10.1278 57.4889 10.3713 56.873 10.8583C56.2571 11.3453 55.634 11.9183 55.0037 12.5772L54.574 10.3856H51.1793V11.2021H51.8668C52.01 11.2021 52.2392 11.3453 52.5544 11.6318C52.8695 11.9183 53.027 12.1475 53.027 12.3193V19.1089C53.027 19.3094 52.8695 19.5529 52.5544 19.8394C52.2392 20.1259 52.01 20.2691 51.8668 20.2691H50.5347C50.3914 20.2691 50.1551 20.1259 49.8257 19.8394C49.4962 19.5529 49.3315 19.3094 49.3315 19.1089V10.3856H45.507V11.2021H46.1516C46.3235 11.2021 46.567 11.3453 46.8821 11.6318C47.1972 11.9183 47.3548 12.1475 47.3548 12.3193V19.1089C47.3548 19.3094 47.1972 19.5529 46.8821 19.8394C46.567 20.1259 46.3235 20.2691 46.1516 20.2691H44.9484C44.7765 20.2691 44.4399 20.0829 43.9385 19.7105C43.4372 19.3381 43.1149 19.0516 42.9717 18.851L37.1705 11.1591L41.2098 6.81897C41.3244 6.70438 41.6682 6.42507 42.2412 5.98103C42.8141 5.53699 43.1722 5.31497 43.3154 5.31497H44.1319V4.4985H38.1159V5.31497H38.9323C39.0756 5.31497 39.3048 5.5155 39.6199 5.91657C39.935 6.31764 40.0353 6.58979 39.9207 6.73303L33.9906 13.3507V6.56114C33.9906 6.38926 34.1625 6.13859 34.5063 5.80914C34.85 5.47969 35.1079 5.31497 35.2797 5.31497H36.0962V4.4985H29.6075V5.31497H30.4239C30.5958 5.31497 30.8537 5.47969 31.1974 5.80914C31.5412 6.13859 31.7131 6.38926 31.7131 6.56114V19.0229C31.7131 19.1948 31.5412 19.4455 31.1974 19.7749C30.8537 20.1044 30.5958 20.2691 30.4239 20.2691H29.6075V21.0856H36.0962V20.2691ZM72.6221 18.0776C72.6221 17.2181 72.35 16.5449 71.8057 16.0579C71.2614 15.5709 70.7027 15.2128 70.1298 14.9836C69.7 14.8117 69.3061 14.6541 68.948 14.5109C68.5899 14.3677 68.2104 14.2101 67.8093 14.0382C67.265 13.7804 66.8353 13.5369 66.5201 13.3077C66.205 13.0785 66.0475 12.7347 66.0475 12.2764C66.0475 11.8753 66.1979 11.5459 66.4987 11.288C66.7995 11.0302 67.265 10.9013 67.8952 10.9013C68.8979 10.9013 69.6929 11.2594 70.2802 11.9756C70.8674 12.6918 71.1611 13.2647 71.1611 13.6944H71.8057V10.3856H71.247C71.1897 10.5002 71.111 10.579 71.0107 10.622C70.9104 10.6649 70.7887 10.6864 70.6454 10.6864C70.2444 10.6864 69.8505 10.5933 69.4637 10.4071C69.077 10.2209 68.5828 10.1278 67.9812 10.1278C66.9785 10.1278 66.1907 10.3785 65.6177 10.8798C65.0448 11.3811 64.7583 12.1188 64.7583 13.0928C64.7583 13.8377 64.9732 14.4321 65.4029 14.8762C65.8326 15.3202 66.3769 15.6998 67.0358 16.0149C67.4655 16.1868 67.8451 16.3444 68.1746 16.4876C68.504 16.6308 68.8693 16.7884 69.2703 16.9603C69.7287 17.1608 70.1799 17.3972 70.6239 17.6693C71.068 17.9415 71.29 18.3784 71.29 18.98C71.29 19.4956 71.1038 19.868 70.7314 20.0972C70.3589 20.3264 69.8433 20.441 69.1844 20.441C68.0098 20.441 67.0859 20.0399 66.4127 19.2378C65.7395 18.4356 65.4029 17.7911 65.4029 17.3041H64.7583V21.0856H65.274C65.4172 20.971 65.5318 20.8779 65.6177 20.8063C65.7037 20.7346 65.8612 20.6988 66.0904 20.6988C66.5488 20.6988 67.0072 20.8063 67.4655 21.0211C67.9239 21.236 68.4968 21.3434 69.1844 21.3434C70.1871 21.3434 71.0107 21.0569 71.6553 20.484C72.2998 19.911 72.6221 19.1089 72.6221 18.0776ZM25.4392 19.4097C24.2074 19.4097 23.2405 18.9943 22.5386 18.1635C21.8368 17.3327 21.4858 16.3157 21.4858 15.1125C21.4858 13.852 21.7437 12.835 22.2593 12.0615C22.775 11.288 23.5628 10.9013 24.6228 10.9013C25.5395 10.9013 26.1125 11.2236 26.3416 11.8681C26.5708 12.5127 26.6138 13.2504 26.4705 14.0812L27.1151 14.0382L28.7051 11.5888C28.1894 11.1018 27.6308 10.7294 27.0292 10.4716C26.4276 10.2137 25.7114 10.0848 24.8806 10.0848C23.4769 10.0848 22.2736 10.6005 21.271 11.6318C20.2683 12.6631 19.767 14.0525 19.767 15.8001C19.767 17.3184 20.211 18.6219 21.0991 19.7105C21.9872 20.7991 23.1761 21.3434 24.6657 21.3434C26.0122 21.3434 27.065 20.9996 27.8242 20.3121C28.5833 19.6245 29.1491 18.6935 29.5215 17.5189H28.834C28.4616 18.1492 28.0319 18.6219 27.5448 18.937C27.0578 19.2521 26.356 19.4097 25.4392 19.4097ZM9.92646 16.9173H9.79754L4.81283 4.4985H0V5.31497H0.816462C0.988348 5.31497 1.24618 5.47969 1.58995 5.80914C1.93373 6.13859 2.10561 6.38926 2.10561 6.56114V19.0229C2.10561 19.1948 1.93373 19.4455 1.58995 19.7749C1.24618 20.1044 0.988348 20.2691 0.816462 20.2691H0V21.0856H5.1566V20.2691H4.34014C4.1969 20.2691 3.95339 20.1044 3.60962 19.7749C3.26585 19.4455 3.09396 19.1948 3.09396 19.0229V6.69006L9.10999 21.3864L15.126 6.94789V19.0229C15.126 19.1948 14.9541 19.4455 14.6104 19.7749C14.2666 20.1044 14.0231 20.2691 13.8798 20.2691H13.0634V21.0856H19.4662V20.2691H18.6497C18.5065 20.2691 18.2558 20.1044 17.8977 19.7749C17.5396 19.4455 17.3606 19.1948 17.3606 19.0229V6.56114C17.3606 6.38926 17.5396 6.13859 17.8977 5.80914C18.2558 5.47969 18.5065 5.31497 18.6497 5.31497H19.4662V4.4985H15.126L9.92646 16.9173Z" fill="white"/>
</g>
<defs>
<clipPath id="clip0_1_646">
<rect width="142.58" height="52" fill="white" transform="matrix(1 0 0 -1 0 52.5)"/>
</clipPath>
</defs>
</svg>
