<svg width="136" height="41" viewBox="0 0 136 41" fill="none" xmlns="http://www.w3.org/2000/svg">
<g id="googleplaystoreupdtd.svg" clip-path="url(#clip0_1_1923)">
<path id="Vector" d="M130.309 40.7144H5.69478C2.95485 40.7144 0.710205 38.4966 0.710205 35.7875V6.22715C0.710205 3.52004 2.95485 1.30225 5.69478 1.30225H130.309C133.049 1.30225 135.292 3.52004 135.292 6.22814V35.7885C135.292 38.4966 133.049 40.7144 130.309 40.7144Z" fill="black"/>
<path id="Vector_2" d="M130.309 2.09192C132.616 2.09192 134.494 3.94771 134.494 6.22915V35.7865C134.494 38.069 132.616 39.9237 130.307 39.9237H5.69478C3.38747 39.9237 1.50981 38.069 1.50981 35.7865V6.23114C1.50981 3.9497 3.38747 2.09391 5.69478 2.09391H130.309M130.309 1.30425H5.69478C2.95485 1.30226 0.710205 3.52006 0.710205 6.22816V35.7885C0.710205 38.4966 2.95485 40.7144 5.69478 40.7144H130.309C133.049 40.7144 135.292 38.4966 135.292 35.7875V6.22716C135.292 3.51907 133.049 1.30127 130.309 1.30127V1.30425Z" fill="#A6A6A6"/>
<path id="Vector_3" d="M50.1245 10.77C50.1245 11.5672 49.8659 12.2057 49.3565 12.6819C48.7708 13.2464 48.008 13.5292 47.0733 13.5292C46.1812 13.5292 45.4184 13.2428 44.7913 12.6723C44.163 12.0935 43.8501 11.3834 43.8501 10.5361C43.8501 9.68876 44.163 8.97867 44.79 8.40582C45.4145 7.83297 46.1773 7.54297 47.0707 7.54297C47.5154 7.54297 47.9395 7.62651 48.3442 7.78524C48.745 7.94396 49.0746 8.15878 49.3138 8.42372L48.7708 8.92735C48.3571 8.47385 47.7921 8.25187 47.0694 8.25187C46.4178 8.25187 45.8541 8.46191 45.3731 8.88439C44.8986 9.31044 44.662 9.86062 44.662 10.5361C44.662 11.2116 44.8986 11.7653 45.3731 12.1914C45.8515 12.6091 46.4178 12.8239 47.0694 12.8239C47.7611 12.8239 48.3429 12.6091 48.8018 12.1866C49.1044 11.9062 49.2763 11.5183 49.3216 11.0254H47.0694V10.3356H50.074C50.1103 10.4848 50.1206 10.6292 50.1206 10.7688L50.1245 10.77ZM54.89 8.37718H52.0716V10.1912H54.616V10.8834H52.0716V12.6974H54.8939V13.3991H51.2738V7.67544H54.8939V8.37957L54.89 8.37718ZM58.2554 13.3991H57.4564V8.37718H55.724V7.67544H59.9879V8.37957H58.2554V13.3991ZM63.074 13.3991V7.67544H63.8704V13.3991H63.074ZM67.4052 13.3991H66.6139V8.37718H64.8763V7.67544H69.1428V8.37957H67.4065L67.4052 13.3991ZM77.2143 12.6616C76.6028 13.2416 75.8438 13.5304 74.9414 13.5304C74.0312 13.5304 73.2736 13.2416 72.6621 12.6628C72.0518 12.0864 71.748 11.3775 71.748 10.5385C71.748 9.6995 72.0518 8.9906 72.6621 8.41417C73.2736 7.83417 74.0325 7.54536 74.9401 7.54536C75.8374 7.54536 76.595 7.83417 77.2065 8.41656C77.822 9.00134 78.1245 9.70547 78.1245 10.5385C78.1245 11.3775 77.822 12.0864 77.2117 12.6628L77.2143 12.6616ZM73.2542 12.1842C73.7145 12.6115 74.2756 12.8263 74.9414 12.8263C75.6008 12.8263 76.1671 12.6115 76.6222 12.1818C77.0811 11.7546 77.3139 11.2032 77.3139 10.5373C77.3139 9.86897 77.0811 9.31999 76.6222 8.89035C76.1671 8.46311 75.6008 8.24829 74.9414 8.24829C74.273 8.24829 73.7132 8.46311 73.2529 8.89274C72.7939 9.31999 72.5612 9.87136 72.5612 10.5373C72.5612 11.2056 72.7939 11.7546 73.2516 12.1842H73.2542ZM79.248 13.3991V7.67544H80.2177L83.234 12.1269H83.2689L83.234 11.0266V7.67544H84.0317V13.3991H83.1991L80.0418 8.72805H80.0069L80.0418 9.83317V13.3991H79.248Z" fill="white" stroke="white" stroke-width="0.198746" stroke-miterlimit="10"/>
<path id="Vector_4" d="M68.6345 22.7351C66.2933 22.7351 64.3809 24.4954 64.3809 26.9261C64.3809 29.3358 66.2923 31.115 68.6335 31.115C70.9805 31.115 72.893 29.3348 72.893 26.9251C72.893 24.4944 70.9796 22.7331 68.6325 22.7331L68.6345 22.7351ZM68.6345 29.4661C67.3515 29.4661 66.2446 28.4179 66.2446 26.9261C66.2446 25.4144 67.3505 24.384 68.6345 24.384C69.9194 24.384 71.0313 25.4134 71.0313 26.9251C71.0313 28.4169 69.9194 29.4641 68.6345 29.4641V29.4661ZM59.3525 22.7351C57.0054 22.7351 55.0979 24.4954 55.0979 26.9261C55.0979 29.3358 57.0054 31.115 59.3525 31.115C61.6976 31.115 63.6071 29.3348 63.6071 26.9251C63.6071 24.4944 61.6976 22.7331 59.3535 22.7331L59.3525 22.7351ZM59.3525 29.4661C58.0666 29.4661 56.9577 28.4179 56.9577 26.9261C56.9577 25.4144 58.0666 24.384 59.3525 24.384C60.6375 24.384 61.7424 25.4134 61.7424 26.9251C61.7424 28.4169 60.6385 29.4641 59.3525 29.4641V29.4661ZM48.3063 24.0191V25.7993H52.6096C52.4833 26.7958 52.1472 27.5268 51.631 28.0369C51.0025 28.6536 50.0239 29.3368 48.3053 29.3368C45.6579 29.3368 43.5843 27.2244 43.5843 24.6068C43.5843 21.9892 45.6569 19.8768 48.3043 19.8768C49.7364 19.8768 50.7787 20.4318 51.5465 21.1479L52.8165 19.8928C51.7424 18.8783 50.3103 18.0986 48.3043 18.0986C44.6743 18.0986 41.6211 21.0186 41.6211 24.6078C41.6211 28.1981 44.6743 31.117 48.3043 31.117C50.2675 31.117 51.7414 30.4805 52.899 29.2891C54.0875 28.1155 54.4585 26.4646 54.4585 25.1319C54.4585 24.7182 54.4236 24.3383 54.361 24.0201H48.3043L48.3063 24.0191ZM93.4738 25.4014C93.1237 24.4626 92.0436 22.7361 89.8437 22.7361C87.6618 22.7361 85.8457 24.4328 85.8457 26.9261C85.8457 29.2731 87.6429 31.115 90.0526 31.115C91.9999 31.115 93.1237 29.9415 93.5862 29.2572L92.1411 28.3055C91.6588 29.0016 91.0014 29.4651 90.0526 29.4651C89.1078 29.4651 88.4315 29.0374 87.9989 28.1951L93.6697 25.8758L93.4728 25.3985L93.4738 25.4014ZM87.6916 26.7958C87.6419 25.1797 88.9616 24.3522 89.9064 24.3522C90.6463 24.3522 91.2749 24.7182 91.4837 25.2423L87.6926 26.7968L87.6916 26.7958ZM83.083 30.8614H84.9467V18.5452H83.083V30.8614ZM80.0298 23.668H79.9671C79.5494 23.1777 78.7508 22.7351 77.7394 22.7351C75.615 22.7351 73.6737 24.577 73.6737 26.94C73.6737 29.2871 75.615 31.117 77.7384 31.117C78.7498 31.117 79.5484 30.6695 79.9661 30.1642H80.0298V30.7649C80.0298 32.3661 79.1645 33.2274 77.7662 33.2274C76.6275 33.2274 75.9214 32.4149 75.628 31.7306L74.0069 32.4009C74.4743 33.5118 75.7125 34.8773 77.7662 34.8773C79.9522 34.8773 81.796 33.6073 81.796 30.5153V22.9887H80.0298V23.668ZM77.8975 29.4661C76.6125 29.4661 75.5375 28.4019 75.5375 26.94C75.5375 25.4631 76.6116 24.384 77.8975 24.384C79.1635 24.384 80.162 25.4631 80.162 26.94C80.162 28.4019 79.1635 29.4661 77.8975 29.4661ZM102.202 18.5462H97.7433V30.8614H99.603V26.1941H102.202C104.266 26.1941 106.291 24.7172 106.291 22.3691C106.291 20.022 104.262 18.5462 102.202 18.5462ZM102.251 24.4815H99.6021V20.2587H102.25C103.639 20.2587 104.431 21.3985 104.431 22.3701C104.431 23.3229 103.639 24.4825 102.25 24.4825L102.251 24.4815ZM113.743 22.7113C112.401 22.7113 111.003 23.298 110.428 24.5979L112.079 25.2811C112.433 24.5979 113.087 24.3761 113.777 24.3761C114.742 24.3761 115.72 24.9489 115.736 25.9604V26.0897C115.398 25.8977 114.678 25.6123 113.792 25.6123C112.015 25.6123 110.205 26.58 110.205 28.384C110.205 30.035 111.66 31.0971 113.298 31.0971C114.548 31.0971 115.237 30.5402 115.672 29.8907H115.735V30.8415H117.53V26.1175C117.53 23.9335 115.88 22.7113 113.743 22.7113ZM113.519 29.4621C112.911 29.4621 112.063 29.1637 112.063 28.4179C112.063 27.4651 113.121 27.0991 114.036 27.0991C114.854 27.0991 115.239 27.2781 115.736 27.5128C115.589 28.6536 114.597 29.4621 113.519 29.4621ZM124.071 22.9818L121.936 28.3224H121.874L119.664 22.9818H117.659L120.977 30.4437L119.083 34.5949H121.026L126.141 22.9808H124.072L124.071 22.9818ZM107.314 30.8624H109.177V18.5452H107.314V30.8614V30.8624Z" fill="white"/>
<path id="Vector_5" d="M11.8731 10.0758C11.5693 10.3706 11.3948 10.8277 11.3948 11.4196V32.5339C11.3948 33.1258 11.5693 33.5841 11.8731 33.8765L11.9481 33.9409L24.7658 22.114V21.8347L11.9481 10.0078L11.8731 10.0758Z" fill="url(#paint0_linear_1_1923)"/>
<path id="Vector_6" d="M29.0324 26.0581L24.7659 22.1138V21.8345L29.0389 17.8902L29.1345 17.9416L34.1936 20.6005C35.6377 21.3548 35.6377 22.596 34.1936 23.355L29.1358 26.008L29.0324 26.0581Z" fill="url(#paint1_linear_1_1923)"/>
<path id="Vector_7" d="M29.1357 26.0082L24.7657 21.9744L11.873 33.8765C12.3514 34.3419 13.1349 34.398 14.0244 33.9326L29.1357 26.0082Z" fill="url(#paint2_linear_1_1923)"/>
<path id="Vector_8" d="M29.1358 17.9403L14.022 10.0159C13.1325 9.55526 12.3503 9.61015 11.8706 10.0756L24.7658 21.9741L29.1358 17.9403Z" fill="url(#paint3_linear_1_1923)"/>
</g>
<defs>
<linearGradient id="paint0_linear_1_1923" x1="23.6281" y1="32.7535" x2="7.65567" y2="15.4511" gradientUnits="userSpaceOnUse">
<stop stop-color="#00A0FF"/>
<stop offset="0.007" stop-color="#00A1FF"/>
<stop offset="0.26" stop-color="#00BEFF"/>
<stop offset="0.512" stop-color="#00D2FF"/>
<stop offset="0.76" stop-color="#00DFFF"/>
<stop offset="1" stop-color="#00E3FF"/>
</linearGradient>
<linearGradient id="paint1_linear_1_1923" x1="36.075" y1="21.9732" x2="11.0489" y2="21.9732" gradientUnits="userSpaceOnUse">
<stop stop-color="#FFE000"/>
<stop offset="0.409" stop-color="#FFBD00"/>
<stop offset="0.775" stop-color="#FFA500"/>
<stop offset="1" stop-color="#FF9C00"/>
</linearGradient>
<linearGradient id="paint2_linear_1_1923" x1="26.7588" y1="19.7823" x2="5.10012" y2="-3.68131" gradientUnits="userSpaceOnUse">
<stop stop-color="#FF3A44"/>
<stop offset="1" stop-color="#C31162"/>
</linearGradient>
<linearGradient id="paint3_linear_1_1923" x1="8.62753" y1="40.901" x2="18.2996" y2="30.4229" gradientUnits="userSpaceOnUse">
<stop stop-color="#32A071"/>
<stop offset="0.069" stop-color="#2DA771"/>
<stop offset="0.476" stop-color="#15CF74"/>
<stop offset="0.801" stop-color="#06E775"/>
<stop offset="1" stop-color="#00F076"/>
</linearGradient>
<clipPath id="clip0_1_1923">
<rect width="134.973" height="39.8" fill="white" transform="translate(0.483398 0.989746)"/>
</clipPath>
</defs>
</svg>
