<svg width="32" height="33" viewBox="0 0 32 33" fill="none" xmlns="http://www.w3.org/2000/svg">
<g id="Icon">
<path id="Vector" d="M12.25 1.46875C13.9583 1.46875 15.5625 1.78125 17.0625 2.40625C18.5417 3.05208 19.8385 3.92708 20.9531 5.03125C22.0677 6.13542 22.9375 7.4375 23.5625 8.9375C24.2083 10.4167 24.5312 12.0104 24.5312 13.7188C24.5312 15.3229 24.25 16.8333 23.6875 18.25C23.125 19.6667 22.3333 20.9271 21.3125 22.0312L30.0625 30.7812L29.3125 31.5312L20.5625 22.7812C19.5 23.8021 18.25 24.5938 16.8125 25.1562C15.375 25.7188 13.8542 26 12.25 26C10.5417 26 8.94792 25.6771 7.46875 25.0312C5.96875 24.3854 4.66667 23.5052 3.5625 22.3906C2.45833 21.276 1.58333 19.9688 0.9375 18.4688C0.3125 16.9896 0 15.4062 0 13.7188C0 12.0521 0.3125 10.4688 0.9375 8.96875C1.58333 7.48958 2.45833 6.19271 3.5625 5.07812C4.66667 3.96354 5.96875 3.08333 7.46875 2.4375C8.94792 1.79167 10.5417 1.46875 12.25 1.46875ZM12.25 2.53125C10.7083 2.53125 9.26042 2.82292 7.90625 3.40625C6.53125 3.98958 5.33854 4.78646 4.32812 5.79688C3.31771 6.80729 2.52083 8 1.9375 9.375C1.35417 10.7292 1.0625 12.1771 1.0625 13.7188C1.0625 15.2604 1.35417 16.7188 1.9375 18.0938C2.52083 19.4479 3.31771 20.6302 4.32812 21.6406C5.33854 22.651 6.53125 23.4479 7.90625 24.0312C9.26042 24.6354 10.7083 24.9375 12.25 24.9375C13.7917 24.9375 15.25 24.6354 16.625 24.0312C17.9792 23.4479 19.1615 22.651 20.1719 21.6406C21.1823 20.6302 21.9792 19.4479 22.5625 18.0938C23.1667 16.7188 23.4688 15.2604 23.4688 13.7188C23.4688 12.1771 23.1667 10.7292 22.5625 9.375C21.9792 8 21.1823 6.80729 20.1719 5.79688C19.1615 4.78646 17.9792 3.98958 16.625 3.40625C15.25 2.82292 13.7917 2.53125 12.25 2.53125Z" fill="white"/>
</g>
</svg>
