<svg width="32" height="33" viewBox="0 0 32 33" fill="none" xmlns="http://www.w3.org/2000/svg">
<g id="Icon">
<path id="Vector" d="M29.7188 8.875C29.8646 9.45833 29.9792 10.1771 30.0625 11.0312C30.1667 11.8646 30.2344 12.6719 30.2656 13.4531C30.2969 14.2344 30.3229 14.8958 30.3438 15.4375C30.3438 15.9792 30.3438 16.25 30.3438 16.25C30.3438 16.25 30.3438 16.5208 30.3438 17.0625C30.3229 17.6042 30.2969 18.2656 30.2656 19.0469C30.2344 19.8281 30.1771 20.6354 30.0938 21.4688C30.0104 22.3229 29.8854 23.0417 29.7188 23.625C29.5312 24.2917 29.1979 24.8698 28.7188 25.3594C28.2396 25.849 27.6771 26.1771 27.0312 26.3438C26.4271 26.5104 25.4792 26.6354 24.1875 26.7188C22.875 26.8229 21.5521 26.8906 20.2188 26.9219C18.8854 26.9531 17.7083 26.9792 16.6875 27C15.6667 27 15.1562 27 15.1562 27C15.1562 27 14.6562 27 13.6562 27C12.6354 26.9792 11.4583 26.9531 10.125 26.9219C8.79167 26.8906 7.46875 26.8229 6.15625 26.7188C4.86458 26.6354 3.91667 26.5104 3.3125 26.3438C2.66667 26.1771 2.09896 25.849 1.60938 25.3594C1.11979 24.8698 0.791667 24.2917 0.625 23.625C0.458333 23.0417 0.333333 22.3229 0.25 21.4688C0.166667 20.6354 0.104167 19.8281 0.0625 19.0469C0.0208333 18.2656 0 17.6042 0 17.0625C0 16.5208 0 16.25 0 16.25C0 16.25 0 15.9792 0 15.4375C0 14.8958 0.0208333 14.2344 0.0625 13.4531C0.104167 12.6719 0.166667 11.8646 0.25 11.0312C0.333333 10.1771 0.458333 9.45833 0.625 8.875C0.791667 8.20833 1.11458 7.63021 1.59375 7.14062C2.07292 6.65104 2.64583 6.32292 3.3125 6.15625C3.89583 5.98958 4.84375 5.86458 6.15625 5.78125C7.46875 5.67708 8.79167 5.60938 10.125 5.57812C11.4583 5.54688 12.6354 5.52083 13.6562 5.5C14.6562 5.5 15.1562 5.5 15.1562 5.5C15.1562 5.5 15.6667 5.5 16.6875 5.5C17.7083 5.52083 18.8854 5.54688 20.2188 5.57812C21.5521 5.60938 22.8646 5.67708 24.1562 5.78125C25.4688 5.86458 26.4167 5.98958 27 6.15625C27.6667 6.32292 28.2396 6.65104 28.7188 7.14062C29.1979 7.63021 29.5312 8.20833 29.7188 8.875ZM12.625 20.9375L20.2188 16.375L12.625 11.8125V20.9375Z" fill="white"/>
</g>
</svg>
